<svg width="1340" height="334" viewBox="0 0 1340 334" fill="none" xmlns="http://www.w3.org/2000/svg">
<path d="M283.551 326.366C286.051 326.366 287.3 327.638 287.3 330.183C287.3 332.728 286.051 334 283.551 334H234.808C232.309 334 231.059 332.728 231.059 330.183C231.059 327.638 232.309 326.366 234.808 326.366H239.026L200.126 231.414H58.1162L21.5592 326.366H28.1206C30.9328 326.366 32.3388 327.638 32.3388 330.183C32.3388 332.728 30.9328 334 28.1206 334H3.74928C1.24976 334 0 332.728 0 330.183C0 327.638 1.24976 326.366 3.74928 326.366H13.5916L51.5547 226.166C51.8676 226.166 52.024 226.007 52.024 225.689L122.795 40.557C122.795 40.2389 122.951 40.0799 123.264 40.0799L137.324 2.38552L137.793 1.9084V1.43137H138.263V0.954247H138.732V0.477123H139.201H139.67V0H140.14H140.609H141.078H141.547H142.017L142.486 0.477123H142.955C142.955 0.477123 143.112 0.477123 143.424 0.477123V0.954247C144.05 1.27232 144.362 1.74948 144.362 2.38571L236.223 225.689C236.223 226.007 236.223 226.166 236.223 226.166L277.467 326.366L283.551 326.366ZM60.9283 223.78H196.845L126.543 52.0084L60.9283 223.78ZM493.988 326.366C496.487 326.366 497.737 327.638 497.737 330.183C497.737 332.728 496.487 334 493.988 334H441.495C438.996 334 437.746 332.728 437.746 330.183C437.746 327.638 438.996 326.366 441.495 326.366H449.932V187.994C449.932 184.495 449.932 181.314 449.932 178.451C448.994 156.503 444.463 139.803 436.34 128.351C428.529 117.218 417.905 111.651 404.47 111.651C403.532 111.651 402.751 111.651 402.126 111.651C397.127 112.287 392.284 113.719 387.597 115.946C366.038 124.852 352.134 143.302 345.885 171.294V326.366H354.79C357.289 326.366 358.539 327.638 358.539 330.183C358.539 332.728 357.289 334 354.79 334H302.298C299.798 334 298.548 332.728 298.548 330.183C298.548 327.638 299.798 326.366 302.298 326.366H310.734V164.614C310.734 154.117 309.953 146.96 308.391 143.143C306.828 139.326 303.235 136.463 297.611 134.554C295.424 133.6 294.799 131.85 295.736 129.306C296.049 128.351 296.674 127.715 297.611 127.397C308.547 121.671 316.514 117.377 321.514 114.514C328.7 110.061 334.637 105.13 339.323 99.7227C341.198 97.8141 343.073 97.8141 344.948 99.7227C345.573 100.359 345.885 101.313 345.885 102.586V147.437C354.634 128.669 367.445 115.787 384.317 108.788C395.253 104.017 406.501 102.427 418.062 104.017C429.935 105.289 440.871 109.584 450.869 116.9C451.182 116.9 451.495 117.059 451.807 117.377V117.854L452.745 118.331L453.214 118.808L453.684 119.285H454.153L454.622 119.763L455.091 120.24L456.029 120.717L456.498 121.194L456.968 121.671L457.437 122.148L457.906 122.625L458.375 123.102L458.845 123.579L459.314 124.057L459.783 124.534L460.252 125.011L460.722 125.488L461.191 125.965H461.66V126.442L462.129 126.919L462.599 127.396L463.068 127.873L463.537 128.35L464.007 128.828L464.476 129.305C464.789 129.623 465.101 130.1 465.414 130.736H465.883L466.352 131.69L466.821 132.168L467.291 133.122C476.352 145.209 481.976 159.842 484.163 177.019L484.632 177.496V177.973V178.927V180.836V181.313L485.102 182.267V182.744V183.699V184.176V185.607V186.084V187.039V187.516V188.47V188.947V190.379V190.856V192.287V326.364L493.988 326.366ZM717.079 326.366C719.578 326.366 720.828 327.638 720.828 330.183C720.828 332.728 719.578 334 717.079 334H664.587C662.087 334 660.837 332.728 660.837 330.183C660.837 327.638 662.087 326.366 664.587 326.366H673.023V187.994C673.023 184.495 673.023 181.314 673.023 178.451C672.085 156.503 667.555 139.803 659.431 128.351C651.62 117.218 640.997 111.651 627.561 111.651C626.623 111.651 625.842 111.651 625.218 111.651C620.219 112.287 615.375 113.719 610.689 115.946C589.129 124.852 575.225 143.302 568.976 171.294V326.366H577.881C580.381 326.366 581.631 327.638 581.631 330.183C581.631 332.728 580.381 334 577.881 334H525.389C522.889 334 521.64 332.728 521.64 330.183C521.64 327.638 522.889 326.366 525.389 326.366H533.825V164.614C533.825 154.117 533.044 146.96 531.482 143.143C529.92 139.326 526.326 136.463 520.702 134.554C518.515 133.6 517.89 131.85 518.828 129.306C519.14 128.351 519.765 127.715 520.702 127.397C531.638 121.671 539.606 117.377 544.605 114.514C551.791 110.061 557.728 105.13 562.415 99.7227C564.289 97.8141 566.164 97.8141 568.039 99.7227C568.664 100.359 568.977 101.313 568.977 102.586V147.437C577.725 128.669 590.536 115.787 607.408 108.788C618.344 104.017 629.593 102.427 641.153 104.017C653.027 105.289 663.962 109.584 673.961 116.9C674.274 116.9 674.586 117.059 674.899 117.377V117.854L675.836 118.331L676.306 118.808L676.775 119.285H677.244L677.713 119.763L678.183 120.24L679.12 120.717L679.59 121.194L680.059 121.671L680.528 122.148L680.997 122.625L681.467 123.102L681.936 123.579L682.405 124.057L682.875 124.534L683.344 125.011L683.813 125.488L684.282 125.965H684.751V126.442L685.221 126.919L685.69 127.396L686.159 127.873L686.629 128.35L687.098 128.828L687.567 129.305C687.88 129.623 688.193 130.1 688.505 130.736H688.974L689.444 131.69L689.913 132.168L690.382 133.122C699.443 145.209 705.067 159.842 707.254 177.019L707.724 177.496V177.973V178.927V180.836V181.313L708.193 182.267V182.744V183.699V184.176V185.607V186.084V187.039V187.516V188.47V188.947V190.379V190.856V192.287V326.364L717.079 326.366ZM1011.88 326.366C1014.38 326.366 1015.63 327.638 1015.63 330.183C1015.63 332.728 1014.38 334 1011.88 334H963.135C960.636 334 959.386 332.728 959.386 330.183C959.386 327.638 960.636 326.366 963.135 326.366H967.353L928.453 231.414H786.443L749.886 326.366H756.448C759.26 326.366 760.666 327.638 760.666 330.183C760.666 332.728 759.26 334 756.448 334H732.077C729.577 334 728.327 332.728 728.327 330.183C728.327 327.638 729.577 326.366 732.077 326.366H741.919L779.882 226.166C780.195 226.166 780.351 226.007 780.351 225.689L851.122 40.557C851.122 40.2389 851.278 40.0799 851.591 40.0799L865.651 2.38552L866.12 1.9084V1.43137H866.59V0.954247H867.059V0.477123H867.528H867.997V0H868.467H868.936H869.405H869.874H870.344L870.813 0.477123H871.282C871.282 0.477123 871.439 0.477123 871.751 0.477123V0.954247C872.377 1.27232 872.689 1.74948 872.689 2.38571L964.55 225.689C964.55 226.007 964.55 226.166 964.55 226.166L1005.79 326.366L1011.88 326.366ZM789.255 223.78H925.172L854.87 52.0084L789.255 223.78ZM1226.53 150.3C1227.16 156.662 1226.06 161.91 1223.25 166.046C1220.75 170.181 1217.32 172.567 1212.94 173.203C1212.32 173.203 1211.85 173.362 1211.53 173.68C1210.6 173.68 1209.82 173.68 1209.19 173.68C1205.13 173.044 1201.85 171.135 1199.35 167.954V167.477C1196.85 164.296 1195.29 159.684 1194.66 153.64C1194.35 150.459 1194.35 146.96 1194.66 143.143C1195.6 132.964 1193.26 124.693 1187.63 118.331C1182.01 111.969 1173.42 108.152 1161.85 106.88C1146.86 105.607 1132.95 108.152 1120.14 114.514C1103.58 122.785 1091.24 136.145 1083.12 154.594C1079.05 163.819 1076.09 174.157 1074.21 185.608V326.366H1083.12C1085.62 326.366 1086.87 327.638 1086.87 330.183C1086.87 332.728 1085.62 334 1083.12 334H1030.62C1028.12 334 1026.87 332.728 1026.87 330.183C1026.87 327.638 1028.12 326.366 1030.62 326.366H1039.06V164.614C1039.06 154.117 1038.28 146.96 1036.72 143.143C1035.15 139.326 1031.56 136.463 1025.94 134.554C1023.75 133.6 1023.13 131.85 1024.06 129.305C1024.38 128.351 1025 127.715 1025.94 127.397C1036.87 121.671 1044.84 117.377 1049.84 114.514C1057.03 110.061 1062.96 105.13 1067.65 99.7227C1069.52 97.8141 1071.4 97.8141 1073.27 99.7227C1073.9 100.359 1074.21 101.313 1074.21 102.586V155.548C1074.84 153.958 1075.46 152.526 1076.09 151.254C1085.15 131.214 1098.74 116.741 1116.86 107.834C1132.8 99.8817 1149.98 97.1779 1168.42 99.7227C1176.54 100.995 1184.2 103.381 1191.38 106.88C1196.07 108.788 1200.29 111.174 1204.04 114.037C1215.91 122.626 1223.25 133.441 1226.06 146.483V146.96C1226.38 147.914 1226.53 149.027 1226.53 150.3ZM1336.2 325.889C1339.02 325.889 1340.27 327.161 1339.95 329.706C1339.95 332.25 1338.7 333.523 1336.2 333.523C1335.27 333.523 1334.48 333.523 1333.86 333.523H1333.39H1332.92C1323.24 332.887 1314.17 330.66 1305.74 326.843L1304.8 326.366C1304.49 326.048 1304.02 325.889 1303.4 325.889V325.412H1302.46L1301.99 324.934H1301.52V324.457H1301.05H1300.58L1300.11 323.98L1299.64 323.503H1299.17L1298.7 323.026L1297.77 322.549L1297.3 322.072H1296.83L1296.36 321.595L1295.89 321.117H1295.42L1294.95 320.64L1294.01 320.163L1293.54 319.686L1293.07 319.209C1292.14 318.573 1291.2 317.778 1290.26 316.823L1289.79 316.346H1289.32L1288.85 315.869L1288.38 315.392L1287.45 314.915L1286.98 314.438V313.961L1286.51 313.484H1286.04L1285.57 312.529H1285.1V312.052H1284.63V311.575H1284.16V311.098H1283.69V310.621L1283.22 310.144L1282.75 309.667L1282.29 309.19V308.713H1281.82V308.236H1281.35L1280.88 307.758L1280.41 306.804V306.327H1279.94V305.85L1279.47 305.373L1279 304.896L1278.53 304.419V303.941L1278.06 303.464V302.987H1277.59V302.51L1277.12 302.033L1276.65 301.079L1276.18 300.602L1275.72 300.125V299.647L1275.25 299.17V298.693V298.216L1274.78 297.739L1274.31 296.785L1273.84 296.308L1273.37 295.353V294.876L1272.9 293.922L1272.43 293.445V292.491L1271.96 291.536L1271.49 291.059V290.105L1271.02 289.151L1270.55 288.674V288.197V287.719L1270.08 286.765V286.288V285.811L1269.62 285.334V284.857V284.38L1269.15 283.425C1269.15 283.107 1268.99 282.63 1268.68 281.994V281.04V280.563L1268.21 280.085V279.608V279.131V278.654V278.177L1267.74 277.7V277.223V276.746V276.269V275.792L1267.27 275.314V274.837V274.36V273.883V273.406V272.929L1266.8 271.975V271.497V271.02V270.543V270.066V269.112V268.158V267.203L1266.33 266.249V265.295V264.341V263.387V262.432V261.955V261.001V259.092V258.615V257.184V256.707V256.229V255.752V255.275V254.798V254.321V253.367V252.89V251.935V251.458V250.504V250.027V249.073V248.118V247.641V246.687V245.733V245.256V244.779V243.824V242.87V241.916V241.439V240.962V240.007V239.053V238.576V237.622V236.668V235.236V234.282V233.805V233.328V230.465V229.511V228.556V228.079V226.648V225.693V224.739V224.262V221.399V220.922V219.968V219.014V218.536V217.105V216.628V215.673V214.719V210.902V210.425V208.994V208.039V207.562V206.131V205.654V204.222V195.634V195.156V193.248V192.771V190.385V189.431V184.659V183.705V146.965V105.931H1236.8C1234.93 105.931 1233.68 104.976 1233.05 103.068C1232.43 100.523 1233.37 98.9326 1235.87 98.2964C1249.3 94.1612 1260.86 86.686 1270.55 75.8707C1280.55 65.0555 1288.36 50.7412 1293.98 32.9278C1294.61 31.0192 1295.86 30.0649 1297.73 30.0649C1300.23 30.0649 1301.48 31.4963 1301.48 34.3592V98.2964H1328.2C1331.01 98.2964 1332.41 99.5688 1332.41 102.114C1332.41 104.658 1331.01 105.931 1328.2 105.931H1301.48V204.222C1301.48 204.54 1301.48 204.699 1301.48 204.699V269.113C1301.48 290.108 1304.76 305.217 1311.32 314.442C1316.32 321.44 1323.51 325.257 1332.88 325.894H1333.82H1334.29C1334.91 325.894 1335.54 325.894 1336.16 325.894L1336.2 325.889Z" fill="#126C64" fill-opacity="0.2"/>
</svg>
